Coordinates
version=1
nRows=11
nColumns=36
inDegrees=yes

Units are S.I. units (second, meters, Newtons, ...)
If the header above contains a line with 'inDegrees', this indicates whether rotational values are in degrees (yes) or radians (no).

endheader
time	pelvis_tilt	pelvis_list	pelvis_rotation	pelvis_tx	pelvis_ty	pelvis_tz	hip_flexion_r	hip_adduction_r	hip_rotation_r	knee_angle_r	knee_angle_r_beta	ankle_angle_r	subtalar_angle_r	mtp_angle_r	hip_flexion_l	hip_adduction_l	hip_rotation_l	knee_angle_l	knee_angle_l_beta	ankle_angle_l	subtalar_angle_l	mtp_angle_l	lumbar_extension	lumbar_bending	lumbar_rotation	arm_flex_r	arm_add_r	arm_rot_r	elbow_flex_r	pro_sup_r	arm_flex_l	arm_add_l	arm_rot_l	elbow_flex_l	pro_sup_l
      0.00000000	      1.37387880	     -2.14056370	      2.95582421	      0.55714033	      1.06861035	      0.84426771	     21.11646962	     -0.25772213	     -1.62588126	     59.12712086	      1.03196294	     -4.14787458	    -13.05083531	     -7.32990357	      8.48836049	     -2.39439748	     -0.29184507	     23.17099519	      0.40441016	     16.72260432	     -2.70364553	     -7.32990357	    -20.47282981	      4.81867333	     -0.60565037	      8.27089419	    -10.68998120	     -0.66280248	     20.14552037	     82.93018976	     12.09539150	    -11.61759858	     -1.51063913	     28.07001711	     82.98994067
      0.01666670	      0.53983599	     -2.14162584	      2.11313427	      0.55480883	      1.06532896	      0.84128289	     23.09604746	      0.46865955	     -1.38518070	     56.33155080	      0.98317103	     -1.72554910	    -15.02535074	     -7.33303575	      7.81339103	     -1.93830699	      1.15997239	     22.47572069	      0.39227533	     16.09120125	     -4.57567057	     -7.33303575	    -19.80658386	      5.09619251	      0.36423381	      7.60044842	    -10.88531921	     -0.73600618	     19.59670040	     82.94778120	     12.48740438	    -11.29894292	     -1.68616542	     29.55639193	     83.00617061
      0.03333330	      0.93043042	     -0.96936109	      1.45062950	      0.55375831	      1.06473518	      0.84130851	     23.77660844	     -0.22689322	     -0.64562432	     53.66716504	      0.93666873	      0.58323288	    -14.81005438	     -7.34276553	      5.92404635	     -0.70137883	      0.75603203	     21.18090320	      0.36967650	     14.60322018	     -3.86990831	     -7.34276553	    -20.19122153	      4.02479013	      0.51709705	      6.96445116	    -10.51849748	     -1.55182107	     19.70941325	     82.30324051	     13.24093061	    -11.57059960	     -3.02365744	     31.02788718	     82.55394580
      0.05000000	      0.86314775	     -0.43142133	      1.03083327	      0.55570572	      1.06418888	      0.84223199	     24.67379881	     -0.57956491	     -0.47349037	     50.06407311	      0.87378291	      2.19808902	    -13.76257830	     -7.34594947	      4.56277074	     -0.23181993	      0.07771056	     19.79442449	      0.34547788	     13.91560887	     -2.77331126	     -7.34594947	    -19.95476711	      3.66828508	      0.60496318	      5.91475554	    -10.29779537	     -2.03917543	     19.86215185	     81.91099849	     13.95315772	    -11.80667838	     -3.99482836	     32.03750855	     82.19136847
      0.06666670	      0.76564726	     -0.00887736	      0.30924395	      0.55635542	      1.06441216	      0.84282966	     25.59569384	     -0.70532905	     -0.02348692	     45.89250646	      0.80097534	      3.15366193	    -12.10061137	     -7.35047382	      3.18414281	      0.15424169	     -0.81351377	     18.48381150	      0.32260337	     13.76914806	     -1.79485774	     -7.35047382	    -19.80210587	      3.22580395	      0.76925940	      4.91584639	     -9.94188913	     -3.03020503	     19.92454227	     81.18673221	     14.56745729	    -11.93576629	     -5.62344693	     32.77663351	     81.53344554
      0.08333330	      0.58769882	      0.33075828	     -0.45739645	      0.55478761	      1.06518411	      0.84251568	     26.65357337	     -0.76164111	      0.61872219	     41.44200025	      0.72329935	      3.88403328	    -10.44987426	     -7.35833067	      1.92283286	      0.54035551	     -1.50686964	     17.37995747	      0.30333748	     14.28072137	     -1.11888238	     -7.35833067	    -19.67621074	      2.95568716	      0.72722259	      4.24608843	     -9.65570430	     -4.23983834	     19.75434828	     79.47712844	     15.12097310	    -12.05180428	     -7.08560327	     33.12134341	     80.07125948
      0.10000000	      0.49767644	      0.57133025	     -1.07448345	      0.55289685	      1.06553715	      0.84209721	     27.55769804	     -0.84835164	      1.04638003	     36.81919849	      0.64261624	      4.31197674	     -8.76211947	     -7.35966453	      0.70846490	      0.87650197	     -2.05515277	     16.66723672	      0.29089816	     15.04312487	     -0.84137886	     -7.35966453	    -19.80160242	      2.81301591	      0.74554354	      3.78975141	     -9.65319360	     -4.89756362	     19.43655771	     78.55620177	     16.01726439	    -12.28454803	     -7.49523441	     33.15926800	     79.34078586
      0.11666670	      0.53094123	      0.88652714	     -1.53183557	      0.55190099	      1.06472176	      0.84205344	     28.19390911	     -1.17405299	      1.16549048	     32.28519321	      0.56348292	      3.99290577	     -7.57146187	     -7.35384613	     -0.46909745	      1.34649194	     -2.38238390	     16.35325929	      0.28541822	     15.71797800	     -1.11900934	     -7.35384613	    -20.00212914	      2.62044909	      0.50799300	      3.72996611	     -9.63557020	     -5.67961189	     18.55869825	     78.07830205	     17.04637067	    -12.57482612	     -7.77616170	     33.01515186	     79.06146890
      0.13333330	      0.90325986	      0.98050424	     -2.17059271	      0.55149204	      1.06309035	      0.84248549	     28.21589711	     -1.25814756	      1.14835461	     27.78486245	      0.48493733	      3.18948561	     -6.92783356	     -7.36030247	     -1.93405684	      1.59603321	     -3.04490599	     16.33323079	      0.28506865	     16.70128097	     -0.98872876	     -7.36030247	    -20.66860391	      2.58991229	      0.72232267	      3.29807366	     -9.76373609	     -6.78147328	     18.98133456	     77.25433022	     17.95567546	    -12.82103143	     -7.71669934	     33.94320782	     78.45795948
      0.15000000	      1.41539641	      1.07085013	     -2.55115902	      0.55123629	      1.06103149	      0.84303188	     27.95237960	     -1.46528223	      0.55761982	     23.40830441	      0.40855198	      2.59138000	     -6.01006938	     -7.36824951	     -3.68843707	      1.88754779	     -3.29542940	     16.12234098	      0.28138793	     17.52086894	     -0.58083270	     -7.36824951	    -21.31761635	      2.63463535	      0.50004320	      3.14315922	     -9.77190213	     -8.04673819	     19.15804186	     76.85946179	     19.04665976	    -13.15940488	     -7.38206730	     34.16915432	     78.09940281
      0.16666670	      1.92261154	      1.20222877	     -2.92894483	      0.55140259	      1.05951022	      0.84396870	     27.61762383	     -1.60117048	     -0.08876585	     19.16736160	      0.33453357	      2.64735520	     -4.70914160	     -7.36725672	     -5.87824022	      2.32500323	     -2.92526495	     15.22920041	      0.26579969	     17.70428344	     -0.66713433	     -7.36725672	    -21.86731086	      2.54833380	      0.40244020	      3.18292722	     -9.78068766	     -8.89903174	     18.63415014	     76.64685647	     19.86554904	    -13.37305588	     -7.14377551	     35.09809589	     77.81359343
